<svg data-v-423bf9ae="" xmlns="http://www.w3.org/2000/svg" viewBox="0 0 319 90" class="iconLeft"><!----><!----><!----><g data-v-423bf9ae="" id="fd0eeccd-03d7-482e-8bd9-189f4b3b6ddd" fill="#000000" transform="matrix(5.888125304749934,0,0,5.888125304749934,104.31262417807261,-7.257113245075558)"><path d="M2.30 3.98L0.98 3.98L0.98 13.78L2.30 13.78ZM4.03 8.64L5.17 9.16C5.49 8.36 6.15 7.81 7.27 7.81C8.39 7.81 9.04 8.37 9.04 9.31L9.04 9.51L6.51 9.74C4.75 9.91 3.89 10.63 3.89 11.87C3.89 13.10 4.89 13.97 6.43 13.97C7.84 13.97 8.55 13.31 8.85 12.70L9.04 12.70L9.04 13.78L10.33 13.78L10.33 9.37C10.33 7.71 9.14 6.64 7.29 6.64C5.61 6.64 4.52 7.57 4.03 8.64ZM5.22 11.82C5.22 11.12 5.85 10.84 6.65 10.77L9.04 10.54L9.04 10.72C9.04 11.91 8.26 12.88 6.65 12.88C5.74 12.88 5.22 12.46 5.22 11.82ZM18.82 3.98L17.50 3.98L17.50 7.92L17.33 7.92C16.95 7.29 16.32 6.64 14.98 6.64C13.17 6.64 11.76 8.15 11.76 10.30C11.76 12.46 13.17 13.97 14.98 13.97C16.32 13.97 16.95 13.31 17.33 12.68L17.53 12.68L17.53 13.78L18.82 13.78ZM15.32 7.81C16.66 7.81 17.50 8.76 17.50 10.30C17.50 11.84 16.66 12.80 15.32 12.80C14 12.80 13.08 11.90 13.08 10.30C13.08 8.71 14 7.81 15.32 7.81ZM20.33 10.25C20.33 12.35 21.78 13.97 23.91 13.97C25.55 13.97 26.43 13.06 26.95 12.22L25.84 11.59C25.48 12.32 24.89 12.82 23.88 12.82C22.65 12.82 21.78 12.04 21.70 10.78L27.22 10.78L27.22 10.12C27.22 8.11 25.82 6.64 23.80 6.64C21.81 6.64 20.33 8.20 20.33 10.25ZM21.70 9.72C21.80 8.47 22.60 7.78 23.80 7.78C25.00 7.78 25.82 8.51 25.84 9.72ZM28.32 4.82C28.32 5.40 28.80 5.85 29.39 5.85C29.97 5.85 30.45 5.40 30.45 4.82C30.45 4.23 29.97 3.78 29.39 3.78C28.80 3.78 28.32 4.23 28.32 4.82ZM30.04 6.83L28.73 6.83L28.73 13.78L30.04 13.78ZM31.22 6.83L31.22 7.98L33.12 7.98L33.12 12.60C33.12 13.30 33.60 13.78 34.27 13.78L36.06 13.78L36.06 12.63L34.80 12.63C34.55 12.63 34.44 12.52 34.44 12.24L34.44 7.98L36.46 7.98L36.46 6.83L34.44 6.83L34.44 4.54L33.12 4.54L33.12 6.83Z"></path></g><!----><g data-v-423bf9ae="" id="309c91d3-0bab-441e-90b9-10ff0d42f061" transform="matrix(1.4053506943550946,0,0,1.4053506943550946,-0.4063075802985807,-0.38874994037195876)" stroke="none" fill="#0D7CE9"><path d="M64 32.8h-5.2V15.5c0-.6-.4-1-1-1h-10c-.5 0-1 .4-1 1v17.3h-4.5c-.5 0-1 .4-1 1v3.9c0 .5-.1 1-.3 1.4h24v-5.3c0-.5-.5-1-1-1zm-10.7-2.1h-1c-.6 0-1-.4-1-1s.4-1 1-1h1c.6 0 1 .4 1 1 0 .5-.4 1-1 1zm0-5h-1c-.6 0-1-.4-1-1s.4-1 1-1h1c.6 0 1 .4 1 1 0 .5-.4 1-1 1zm0-5h-1c-.6 0-1-.4-1-1s.4-1 1-1h1c.6 0 1 .4 1 1 0 .5-.4 1-1 1z"></path><path d="M29 36.3h5.6c1.1 0 2-.9 2-2v-7.7c0-.5-.5-1-1-1H29l-.5.2C27.3 23.6 17.9 4.9 16.1 1.5c-.3-.5-.9-.7-1.3-.4L9.5 3.8c-.3.2-.6.4-.6.9v19.4H7.4c-.5 0-1 .5-1 1v4.2c0 1.1.9 2 2 2h3c1.1 0 2-.9 2-2v-4.2c0-.5-.4-1-1-1h-1.5V8.9c.1.3 9 17.9 9.9 19.5l-.8.3c-.4.1-.7.5-.7 1v4.7c0 1.1.9 2 2 2H27v4.8H2c-.5 0-1 .4-1 1v3.6c0 .9.4 1.8 1.1 2.3 3.5 2.8 4.2 3.1 4.2 3.8v2.9c0 1.6 1.3 3 3 3h48.1c1.6 0 3-1.3 3-2.9.2-1.7-.4-3.1.5-3.6l2.5-1.3c1-.5 1.6-1.5 1.6-2.6v-6.1H29v-5zm-14.2-33l1.4 2.8-3.9-1.6 2.5-1.2zm1 10.8L12 6.6l5.2 2.1-1.4 5.4zm2.8-3.2l3.8 7.4-5.2-2.1 1.4-5.3zm3.3 15.3l-3.8-7.4 5.2 2.1-1.4 5.3zm4.4.4l-2.7.9 1.1-4.4 1.8 3.5h-.2zm24.3 22.8h2c.6 0 1 .4 1 1s-.4 1-1 1h-2c-.6 0-1-.4-1-1 0-.5.4-1 1-1zm-8 0h2c.6 0 1 .4 1 1s-.4 1-1 1h-2c-.6 0-1-.4-1-1 0-.5.4-1 1-1zm-8 0h2c.6 0 1 .4 1 1s-.4 1-1 1h-2c-.6 0-1-.4-1-1 0-.5.4-1 1-1zM64 63c-3.9 0-4-4-8.9-4s-5 4-8.9 4c-3.8 0-4-4-8.9-4-4.8 0-5 4-8.9 4-3.9 0-4-4-8.8-4-4.8 0-5.1 4-8.9 4-3.8 0-4.1-4-8.8-4-.5 0-1 .4-1 1 0 .5.4 1 1 1 3.8 0 4.1 4 8.8 4 4.8 0 5-4 8.9-4 3.8 0 4 4 8.8 4 4.8 0 5-4 8.9-4 3.9 0 4 4 8.9 4 4.8 0 5.1-4 8.9-4 3.9 0 4 4 8.9 4 1.3 0 1.3-2 0-2z"></path></g><!----></svg>